<svg width="32" height="33" viewBox="0 0 32 33" fill="none" xmlns="http://www.w3.org/2000/svg">
<path fill-rule="evenodd" clip-rule="evenodd" d="M27.1971 22.6793H27.1973L18.0125 6.92582H18.0122C17.5424 6.11918 16.6792 5.62305 15.7457 5.62305C14.8122 5.62305 13.949 6.11918 13.4792 6.92582H13.4789L4.31664 22.6404L4.31567 22.6421L4.29409 22.6791H4.29431C3.82061 23.491 3.81706 24.4941 4.28499 25.3093C4.75292 26.1244 5.62094 26.6272 6.56087 26.6276H24.9305C25.8704 26.6272 26.7384 26.1244 27.2063 25.3093C27.6742 24.4942 27.6707 23.4911 27.1971 22.6793ZM19.8044 22.3729C19.602 22.5754 19.3274 22.6892 19.0411 22.6892C18.7548 22.6892 18.4802 22.5754 18.2778 22.3729L15.7452 19.8391L13.2126 22.3729C12.9406 22.6495 12.5411 22.7589 12.1661 22.6595C11.7911 22.56 11.4983 22.267 11.3991 21.892C11.2999 21.5169 11.4095 21.1175 11.6863 20.8456L14.2188 18.3121L11.7763 15.8684C11.3593 15.446 11.3614 14.7662 11.781 14.3464C12.2006 13.9266 12.8804 13.9242 13.303 14.3411L15.7454 16.7848L18.1878 14.3411C18.4598 14.0641 18.8594 13.9544 19.2347 14.0538C19.6099 14.1532 19.9029 14.4464 20.0021 14.8217C20.1013 15.1969 19.9914 15.5966 19.7143 15.8684L17.2718 18.3121L19.8044 20.8455C20.2258 21.2675 20.2258 21.951 19.8044 22.3729Z" fill="#CD3C14"/>
</svg>
