<svg xmlns="http://www.w3.org/2000/svg" width="50" height="50" viewBox="0 0 50 50"><rect width="50" height="50" fill="#ff7900"/><path d="M90.849,225.667a4.1,4.1,0,0,1-2.293.691,1.929,1.929,0,0,1-2.066-2.021c0-1.558,1.432-2.383,4.383-2.716v-.386c0-.506-.385-.8-1.094-.8a2.074,2.074,0,0,0-1.7.8l-1.235-.706a3.4,3.4,0,0,1,2.967-1.358c1.813,0,2.822.785,2.822,2.064v5.045H91.016ZM88.282,224.2a.84.84,0,0,0,.826.9,2.552,2.552,0,0,0,1.7-.734v-1.647c-1.711.217-2.522.656-2.522,1.48Z" transform="translate(-71.234 -180.51)" fill="#fff"/><path d="M129.54,219.464l1.515-.21.166.826a3.9,3.9,0,0,1,2.39-.96,1.969,1.969,0,0,1,2.17,2.265v4.845h-1.829V221.7c0-.852-.222-1.235-.882-1.235a2.7,2.7,0,0,0-1.713.773v4.992H129.54Z" transform="translate(-106.69 -180.469)" fill="#fff"/><path d="M218.4,226.363c-2.051,0-3.276-1.318-3.276-3.607s1.235-3.635,3.246-3.635,3.2,1.279,3.2,3.542c0,.12-.014.24-.014.353h-4.634c.014,1.318.561,1.983,1.639,1.983a1.784,1.784,0,0,0,1.579-.882l1.342.744A3.352,3.352,0,0,1,218.4,226.363Zm1.372-4.526a1.324,1.324,0,0,0-1.4-1.478c-.826,0-1.342.529-1.411,1.478Z" transform="translate(-177.175 -180.469)" fill="#fff"/><path d="M18.813,226.34a3.677,3.677,0,0,1,0-7.34,3.677,3.677,0,0,1,0,7.34Zm0-5.8c-1.367,0-1.621,1.235-1.621,2.117s.254,2.126,1.621,2.126,1.621-1.235,1.621-2.126S20.18,220.543,18.813,220.543Z" transform="translate(-12.659 -180.37)" fill="#fff"/><path d="M61.53,219.331h1.741v.818a2.7,2.7,0,0,1,1.917-.961,1.517,1.517,0,0,1,.236.012v1.718h-.088c-.8,0-1.669.123-1.94.743v4.629H61.53Z" transform="translate(-50.677 -180.524)" fill="#fff"/><path d="M175.293,224.776c1.39-.011,1.506-1.423,1.506-2.348,0-1.087-.529-1.972-1.519-1.972-.658,0-1.392.48-1.392,2.048C173.889,223.365,173.949,224.785,175.293,224.776Zm3.267-5.489v6.588c0,1.164-.088,3.078-3.406,3.1-1.367,0-2.635-.538-2.889-1.734l1.808-.291c.076.342.284.684,1.309.684.951,0,1.411-.455,1.411-1.543v-.81l-.025-.025a1.83,1.83,0,0,1-1.8,1.012c-1.621,0-2.9-1.125-2.9-3.478,0-2.327,1.318-3.628,2.8-3.63,1.388,0,1.9.63,2.021.963h-.021l.15-.833Z" transform="translate(-141.718 -180.502)" fill="#fff"/><path d="M247.25,205.357h-.72v1.993h-.381v-1.993h-.72v-.307h1.82Zm3,1.993h-.379v-1.921h-.012l-.753,1.921h-.24l-.753-1.921H248.1v1.921h-.379v-2.293h.586l.686,1.746.676-1.746h.58Z" transform="translate(-202.138 -168.881)" fill="#fff"/></svg>